<svg xmlns="http://www.w3.org/2000/svg" width="228" height="228" viewBox="0 0 228 228" fill="none"><circle cx="114" cy="114" r="111" fill="#003399" stroke="white" stroke-width="6"></circle><path d="M146.427 154H140.989L141.022 149.454H146.427C147.55 149.454 148.498 149.185 149.273 148.646C150.059 148.107 150.654 147.305 151.058 146.238C151.473 145.161 151.681 143.836 151.681 142.264V141.204C151.681 140.025 151.563 138.992 151.327 138.105C151.103 137.207 150.766 136.461 150.317 135.866C149.868 135.26 149.307 134.805 148.633 134.502C147.971 134.199 147.207 134.047 146.343 134.047H140.888V129.484H146.343C148.004 129.484 149.525 129.771 150.906 130.343C152.298 130.904 153.499 131.713 154.509 132.768C155.531 133.812 156.317 135.052 156.867 136.489C157.428 137.915 157.709 139.497 157.709 141.237V142.264C157.709 143.993 157.428 145.576 156.867 147.013C156.317 148.45 155.537 149.69 154.526 150.734C153.516 151.778 152.321 152.586 150.94 153.159C149.57 153.72 148.066 154 146.427 154ZM144.373 129.484V154H138.463V129.484H144.373Z" fill="white"></path><path d="M125.785 145.683H119.689V141.119H125.785C126.615 141.119 127.289 140.979 127.805 140.698C128.322 140.418 128.698 140.031 128.934 139.537C129.18 139.032 129.304 138.465 129.304 137.836C129.304 137.162 129.18 136.539 128.934 135.967C128.698 135.395 128.322 134.934 127.805 134.586C127.289 134.227 126.615 134.047 125.785 134.047H121.912V154H116.002V129.484H125.785C127.749 129.484 129.439 129.844 130.853 130.562C132.279 131.28 133.373 132.268 134.136 133.525C134.9 134.772 135.281 136.197 135.281 137.802C135.281 139.385 134.9 140.766 134.136 141.944C133.373 143.123 132.279 144.044 130.853 144.706C129.439 145.357 127.749 145.683 125.785 145.683Z" fill="white"></path><path d="M112.55 140.899V150.968C112.135 151.428 111.495 151.922 110.631 152.45C109.777 152.966 108.7 153.409 107.398 153.78C106.096 154.15 104.563 154.335 102.801 154.335C101.173 154.335 99.6972 154.077 98.3726 153.561C97.048 153.033 95.9086 152.264 94.9545 151.254C94.0115 150.233 93.2819 148.986 92.7655 147.516C92.2604 146.034 92.0078 144.339 92.0078 142.431V141.067C92.0078 139.159 92.266 137.464 92.7824 135.982C93.2987 134.5 94.0228 133.254 94.9545 132.244C95.8974 131.222 97.0031 130.448 98.2715 129.92C99.5512 129.393 100.954 129.129 102.481 129.129C104.737 129.129 106.573 129.488 107.987 130.207C109.401 130.914 110.473 131.896 111.203 133.153C111.933 134.399 112.376 135.842 112.533 137.481H106.859C106.747 136.672 106.533 135.988 106.219 135.426C105.916 134.854 105.478 134.422 104.906 134.13C104.333 133.827 103.592 133.675 102.683 133.675C101.976 133.675 101.33 133.827 100.747 134.13C100.174 134.433 99.6859 134.893 99.2818 135.511C98.8777 136.117 98.5634 136.88 98.3389 137.8C98.1256 138.721 98.019 139.799 98.019 141.033V142.431C98.019 143.654 98.12 144.726 98.3221 145.647C98.5353 146.567 98.8496 147.336 99.265 147.954C99.6915 148.56 100.23 149.02 100.881 149.334C101.544 149.638 102.324 149.789 103.222 149.789C103.851 149.789 104.389 149.739 104.838 149.638C105.287 149.525 105.658 149.391 105.95 149.233C106.253 149.065 106.483 148.908 106.64 148.762V144.957H102.532V140.899H112.55Z" fill="white"></path><path d="M70 129.484H79.6482C81.534 129.484 83.1729 129.765 84.5649 130.326C85.9568 130.888 87.0288 131.718 87.7809 132.818C88.5442 133.918 88.9259 135.277 88.9259 136.893C88.9259 138.296 88.707 139.469 88.2692 140.412C87.8314 141.355 87.2196 142.135 86.4339 142.753C85.6593 143.359 84.7557 143.858 83.723 144.251L81.7866 145.346H73.6875L73.6538 140.783H79.6482C80.4003 140.783 81.0233 140.648 81.5172 140.379C82.0111 140.109 82.3815 139.727 82.6285 139.234C82.8867 138.728 83.0158 138.128 83.0158 137.432C83.0158 136.725 82.8867 136.119 82.6285 135.613C82.3703 135.108 81.9886 134.721 81.4835 134.452C80.9896 134.182 80.3778 134.047 79.6482 134.047H75.9101V154H70V129.484ZM83.4199 154L77.998 143.157L84.2618 143.123L89.751 153.748V154H83.4199Z" fill="white"></path><path d="M114.502 16L110.214 29.198L116.813 31.3422L114.502 16Z" fill="#FFCC00"></path><path d="M114.502 16L118.79 29.198L112.191 31.3422L114.502 16Z" fill="#FFCC00"></path><path d="M127.699 25.584H113.822V32.5226L127.699 25.584Z" fill="#FFCC00"></path><path d="M127.699 25.584L116.472 33.7408L112.394 28.1274L127.699 25.584Z" fill="#FFCC00"></path><path d="M122.66 41.1035L118.372 27.9055L111.773 30.0496L122.66 41.1035Z" fill="#FFCC00"></path><path d="M122.66 41.1035L111.433 32.9467L115.512 27.3332L122.66 41.1035Z" fill="#FFCC00"></path><path d="M101.303 25.584H115.18V32.5226L101.303 25.584Z" fill="#FFCC00"></path><path d="M101.303 25.584L112.53 33.7408L116.608 28.1274L101.303 25.584Z" fill="#FFCC00"></path><path d="M106.342 41.1035L110.63 27.9055L117.229 30.0496L106.342 41.1035Z" fill="#FFCC00"></path><path d="M106.342 41.1035L117.569 32.9467L113.49 27.3332L106.342 41.1035Z" fill="#FFCC00"></path><path d="M114.502 182.531L110.214 195.729L116.813 197.873L114.502 182.531Z" fill="#FFCC00"></path><path d="M114.502 182.531L118.79 195.729L112.191 197.873L114.502 182.531Z" fill="#FFCC00"></path><path d="M127.699 192.1H113.822V199.038L127.699 192.1Z" fill="#FFCC00"></path><path d="M127.699 192.1L116.472 200.256L112.394 194.643L127.699 192.1Z" fill="#FFCC00"></path><path d="M122.66 207.629L118.372 194.431L111.773 196.575L122.66 207.629Z" fill="#FFCC00"></path><path d="M122.66 207.629L111.433 199.472L115.512 193.859L122.66 207.629Z" fill="#FFCC00"></path><path d="M101.305 192.1H115.182V199.038L101.305 192.1Z" fill="#FFCC00"></path><path d="M101.305 192.1L112.532 200.256L116.61 194.643L101.305 192.1Z" fill="#FFCC00"></path><path d="M106.344 207.629L110.632 194.431L117.231 196.575L106.344 207.629Z" fill="#FFCC00"></path><path d="M106.344 207.629L117.571 199.472L113.492 193.859L106.344 207.629Z" fill="#FFCC00"></path><path d="M31.2363 99.2754L26.948 112.473L33.547 114.618L31.2363 99.2754Z" fill="#FFCC00"></path><path d="M31.2363 99.2754L35.5246 112.473L28.9256 114.618L31.2363 99.2754Z" fill="#FFCC00"></path><path d="M44.4336 108.859H30.5564V115.798L44.4336 108.859Z" fill="#FFCC00"></path><path d="M44.4336 108.859L33.2067 117.016L29.1283 111.403L44.4336 108.859Z" fill="#FFCC00"></path><path d="M39.3945 124.379L35.1062 111.181L28.5072 113.325L39.3945 124.379Z" fill="#FFCC00"></path><path d="M39.3945 124.379L28.1676 116.222L32.246 110.609L39.3945 124.379Z" fill="#FFCC00"></path><path d="M18.0391 108.859H31.9163V115.798L18.0391 108.859Z" fill="#FFCC00"></path><path d="M18.0391 108.859L29.266 117.016L33.3444 111.403L18.0391 108.859Z" fill="#FFCC00"></path><path d="M23.0781 124.379L27.3664 111.181L33.9654 113.325L23.0781 124.379Z" fill="#FFCC00"></path><path d="M23.0781 124.379L34.305 116.222L30.2266 110.609L23.0781 124.379Z" fill="#FFCC00"></path><path d="M64.7129 52.2578L75.9398 44.101L71.8614 38.4875L64.7129 52.2578Z" fill="#FFCC00"></path><path d="M64.7129 52.2578L69.0012 39.0598L75.6002 41.2039L64.7129 52.2578Z" fill="#FFCC00"></path><path d="M59.668 36.75L70.8949 44.9068L74.9733 39.2934L59.668 36.75Z" fill="#FFCC00"></path><path d="M59.668 36.75H73.5452V43.6886L59.668 36.75Z" fill="#FFCC00"></path><path d="M72.8672 27.1465L68.5789 40.3445L75.1779 42.4887L72.8672 27.1465Z" fill="#FFCC00"></path><path d="M72.8672 27.1465L77.1555 40.3445L70.5565 42.4887L72.8672 27.1465Z" fill="#FFCC00"></path><path d="M81.0234 52.2656L69.7965 44.1088L73.8749 38.4953L81.0234 52.2656Z" fill="#FFCC00"></path><path d="M81.0234 52.2656L76.7351 39.0676L70.1361 41.2118L81.0234 52.2656Z" fill="#FFCC00"></path><path d="M86.0664 36.7637L74.8395 44.9205L70.7611 39.307L86.0664 36.7637Z" fill="#FFCC00"></path><path d="M86.0664 36.7637H72.1892V43.7023L86.0664 36.7637Z" fill="#FFCC00"></path><path d="M50.5488 82.7344L46.2605 69.5364L39.6615 71.6805L50.5488 82.7344Z" fill="#FFCC00"></path><path d="M50.5488 82.7344L39.3219 74.5776L43.4003 68.9641L50.5488 82.7344Z" fill="#FFCC00"></path><path d="M34.2344 82.7344L45.4613 74.5776L41.3829 68.9641L34.2344 82.7344Z" fill="#FFCC00"></path><path d="M34.2344 82.7344L38.5227 69.5364L45.1217 71.6805L34.2344 82.7344Z" fill="#FFCC00"></path><path d="M29.1934 67.2383L40.4203 75.3951L44.4987 69.7817L29.1934 67.2383Z" fill="#FFCC00"></path><path d="M29.1934 67.2383H43.0706V74.1769L29.1934 67.2383Z" fill="#FFCC00"></path><path d="M55.5898 67.2207L44.3629 75.3775L40.2845 69.7641L55.5898 67.2207Z" fill="#FFCC00"></path><path d="M55.5898 67.2207H41.7126V74.1593L55.5898 67.2207Z" fill="#FFCC00"></path><path d="M42.3906 57.6172L46.6789 70.8152L40.0799 72.9594L42.3906 57.6172Z" fill="#FFCC00"></path><path d="M42.3906 57.6172L38.1023 70.8152L44.7013 72.9594L42.3906 57.6172Z" fill="#FFCC00"></path><path d="M55.5879 150.486H41.7107V157.425L55.5879 150.486Z" fill="#FFCC00"></path><path d="M55.5879 150.486L44.361 158.643L40.2826 153.03L55.5879 150.486Z" fill="#FFCC00"></path><path d="M50.5488 166.018L46.2605 152.82L39.6615 154.964L50.5488 166.018Z" fill="#FFCC00"></path><path d="M50.5488 166.018L39.3219 157.861L43.4003 152.247L50.5488 166.018Z" fill="#FFCC00"></path><path d="M34.2344 166.023L45.4613 157.867L41.3829 152.253L34.2344 166.023Z" fill="#FFCC00"></path><path d="M34.2344 166.023L38.5227 152.825L45.1217 154.97L34.2344 166.023Z" fill="#FFCC00"></path><path d="M42.3887 140.904L46.677 154.102L40.078 156.246L42.3887 140.904Z" fill="#FFCC00"></path><path d="M42.3887 140.904L38.1004 154.102L44.6994 156.246L42.3887 140.904Z" fill="#FFCC00"></path><path d="M29.1914 150.488H43.0686V157.427L29.1914 150.488Z" fill="#FFCC00"></path><path d="M29.1914 150.488L40.4183 158.645L44.4967 153.032L29.1914 150.488Z" fill="#FFCC00"></path><path d="M86.0645 180.971H72.1872V187.909L86.0645 180.971Z" fill="#FFCC00"></path><path d="M86.0645 180.971L74.8375 189.128L70.7591 183.514L86.0645 180.971Z" fill="#FFCC00"></path><path d="M81.0234 196.492L76.7351 183.294L70.1361 185.438L81.0234 196.492Z" fill="#FFCC00"></path><path d="M81.0234 196.492L69.7965 188.335L73.8749 182.722L81.0234 196.492Z" fill="#FFCC00"></path><path d="M64.7109 196.492L75.9378 188.335L71.8594 182.722L64.7109 196.492Z" fill="#FFCC00"></path><path d="M64.7109 196.492L68.9992 183.294L75.5982 185.438L64.7109 196.492Z" fill="#FFCC00"></path><path d="M72.8652 171.373L77.1535 184.571L70.5545 186.715L72.8652 171.373Z" fill="#FFCC00"></path><path d="M72.8652 171.373L68.5769 184.571L75.1759 186.715L72.8652 171.373Z" fill="#FFCC00"></path><path d="M59.668 180.955H73.5452V187.894L59.668 180.955Z" fill="#FFCC00"></path><path d="M59.668 180.955L70.8949 189.112L74.9733 183.498L59.668 180.955Z" fill="#FFCC00"></path><path d="M197.764 99.2754L202.052 112.473L195.453 114.618L197.764 99.2754Z" fill="#FFCC00"></path><path d="M197.764 99.2754L193.475 112.473L200.074 114.618L197.764 99.2754Z" fill="#FFCC00"></path><path d="M184.564 108.859H198.442V115.798L184.564 108.859Z" fill="#FFCC00"></path><path d="M184.564 108.859L195.791 117.016L199.87 111.403L184.564 108.859Z" fill="#FFCC00"></path><path d="M189.604 124.379L193.892 111.181L200.491 113.325L189.604 124.379Z" fill="#FFCC00"></path><path d="M189.604 124.379L200.83 116.222L196.752 110.609L189.604 124.379Z" fill="#FFCC00"></path><path d="M210.961 108.859H197.084V115.798L210.961 108.859Z" fill="#FFCC00"></path><path d="M210.961 108.859L199.734 117.016L195.656 111.403L210.961 108.859Z" fill="#FFCC00"></path><path d="M205.922 124.379L201.634 111.181L195.035 113.325L205.922 124.379Z" fill="#FFCC00"></path><path d="M205.922 124.379L194.695 116.222L198.773 110.609L205.922 124.379Z" fill="#FFCC00"></path><path d="M164.289 52.2598L153.062 44.1029L157.141 38.4895L164.289 52.2598Z" fill="#FFCC00"></path><path d="M164.289 52.2598L160.001 39.0617L153.402 41.2059L164.289 52.2598Z" fill="#FFCC00"></path><path d="M169.332 36.748L158.105 44.9049L154.027 39.2914L169.332 36.748Z" fill="#FFCC00"></path><path d="M169.332 36.748H155.455V43.6867L169.332 36.748Z" fill="#FFCC00"></path><path d="M156.133 27.1445L160.421 40.3425L153.822 42.4867L156.133 27.1445Z" fill="#FFCC00"></path><path d="M156.133 27.1445L151.845 40.3425L158.444 42.4867L156.133 27.1445Z" fill="#FFCC00"></path><path d="M147.977 52.2578L159.203 44.101L155.125 38.4875L147.977 52.2578Z" fill="#FFCC00"></path><path d="M147.977 52.2578L152.265 39.0598L158.864 41.2039L147.977 52.2578Z" fill="#FFCC00"></path><path d="M142.934 36.75L154.161 44.9068L158.239 39.2934L142.934 36.75Z" fill="#FFCC00"></path><path d="M142.934 36.75H156.811V43.6886L142.934 36.75Z" fill="#FFCC00"></path><path d="M178.449 82.7461L182.738 69.5481L189.337 71.6922L178.449 82.7461Z" fill="#FFCC00"></path><path d="M178.449 82.7461L189.676 74.5893L185.598 68.9758L178.449 82.7461Z" fill="#FFCC00"></path><path d="M194.764 82.7305L183.537 74.5736L187.615 68.9602L194.764 82.7305Z" fill="#FFCC00"></path><path d="M194.764 82.7305L190.475 69.5325L183.876 71.6766L194.764 82.7305Z" fill="#FFCC00"></path><path d="M199.807 67.2441L188.58 75.401L184.501 69.7875L199.807 67.2441Z" fill="#FFCC00"></path><path d="M199.807 67.2441H185.929V74.1827L199.807 67.2441Z" fill="#FFCC00"></path><path d="M173.41 67.2363L184.637 75.3932L188.715 69.7797L173.41 67.2363Z" fill="#FFCC00"></path><path d="M173.41 67.2363H187.287V74.1749L173.41 67.2363Z" fill="#FFCC00"></path><path d="M186.607 57.627L182.319 70.825L188.918 72.9691L186.607 57.627Z" fill="#FFCC00"></path><path d="M186.607 57.627L190.896 70.825L184.297 72.9691L186.607 57.627Z" fill="#FFCC00"></path><path d="M173.41 150.486H187.287V157.425L173.41 150.486Z" fill="#FFCC00"></path><path d="M173.41 150.486L184.637 158.643L188.715 153.03L173.41 150.486Z" fill="#FFCC00"></path><path d="M178.449 166.018L182.738 152.82L189.337 154.964L178.449 166.018Z" fill="#FFCC00"></path><path d="M178.449 166.018L189.676 157.861L185.598 152.247L178.449 166.018Z" fill="#FFCC00"></path><path d="M194.764 166.023L183.537 157.867L187.615 152.253L194.764 166.023Z" fill="#FFCC00"></path><path d="M194.764 166.023L190.475 152.825L183.876 154.97L194.764 166.023Z" fill="#FFCC00"></path><path d="M186.609 140.904L182.321 154.102L188.92 156.246L186.609 140.904Z" fill="#FFCC00"></path><path d="M186.609 140.904L190.898 154.102L184.299 156.246L186.609 140.904Z" fill="#FFCC00"></path><path d="M199.807 150.488H185.929V157.427L199.807 150.488Z" fill="#FFCC00"></path><path d="M199.807 150.488L188.58 158.645L184.501 153.032L199.807 150.488Z" fill="#FFCC00"></path><path d="M142.934 180.971H156.811V187.909L142.934 180.971Z" fill="#FFCC00"></path><path d="M142.934 180.971L154.161 189.128L158.239 183.514L142.934 180.971Z" fill="#FFCC00"></path><path d="M147.975 196.492L152.263 183.294L158.862 185.438L147.975 196.492Z" fill="#FFCC00"></path><path d="M147.975 196.492L159.202 188.335L155.123 182.722L147.975 196.492Z" fill="#FFCC00"></path><path d="M164.287 196.494L153.06 188.337L157.139 182.724L164.287 196.494Z" fill="#FFCC00"></path><path d="M164.287 196.494L159.999 183.296L153.4 185.44L164.287 196.494Z" fill="#FFCC00"></path><path d="M156.133 171.379L151.845 184.577L158.444 186.721L156.133 171.379Z" fill="#FFCC00"></path><path d="M156.133 171.379L160.421 184.577L153.822 186.721L156.133 171.379Z" fill="#FFCC00"></path><path d="M169.33 180.955H155.453V187.894L169.33 180.955Z" fill="#FFCC00"></path><path d="M169.33 180.955L158.103 189.112L154.025 183.498L169.33 180.955Z" fill="#FFCC00"></path><path opacity="0.4" d="M114.98 61.3202C114.516 61.1104 114.019 61 113.5 61C112.981 61 112.484 61.1104 112.02 61.3202L91.229 70.1425C88.7998 71.1694 86.989 73.5654 87.0001 76.4583C87.0553 87.4116 91.5603 107.452 110.585 116.562C112.429 117.445 114.571 117.445 116.415 116.562C135.44 107.452 139.945 87.4116 140 76.4583C140.011 73.5654 138.2 71.1694 135.771 70.1425L114.98 61.3202ZM125.977 84.077L111.844 98.2104C110.806 99.2483 109.128 99.2483 108.101 98.2104L101.034 91.1437C99.9961 90.1058 99.9961 88.4275 101.034 87.4006C102.072 86.3737 103.75 86.3627 104.777 87.4006L109.967 92.5902L122.223 80.3229C123.261 79.285 124.939 79.285 125.966 80.3229C126.993 81.3608 127.004 83.0391 125.966 84.066L125.977 84.077Z" fill="white"></path><path d="M125.977 80.3234C127.015 81.3613 127.015 83.0396 125.977 84.0665L111.844 98.2108C110.806 99.2487 109.128 99.2487 108.101 98.2108L101.034 91.1442C99.9964 90.1063 99.9964 88.4279 101.034 87.4011C102.072 86.3742 103.751 86.3631 104.777 87.4011L109.967 92.5906L122.223 80.3234C123.261 79.2854 124.939 79.2854 125.966 80.3234H125.977Z" fill="white"></path></svg>